HIERARCHY
ROOT Root
{
  OFFSET 0.0 0.0 0.0
  CHANNELS 6 Xposition Yposition Zposition Zrotation Yrotation Xrotation
  JOINT Hips
  {
    OFFSET 0.0 100.0 0.0
    CHANNELS 6 Xposition Yposition Zposition Zrotation Yrotation Xrotation
    JOINT Spine1
    {
      OFFSET 5.003913 -0.037094 -0.013727
      CHANNELS 3 Zrotation Yrotation Xrotation
      JOINT Spine2
      {
        OFFSET 7.125363 -1e-06 0.0
        CHANNELS 3 Zrotation Yrotation Xrotation
        JOINT Chest
        {
          OFFSET 7.594027 1e-06 0.0
          CHANNELS 3 Zrotation Yrotation Xrotation
          JOINT Neck1
          {
            OFFSET 26.313086 -0.460272 -0.181672
            CHANNELS 3 Zrotation Yrotation Xrotation
            JOINT Neck2
            {
              OFFSET 8.045911 0.0 0.0
              CHANNELS 3 Zrotation Yrotation Xrotation
              JOINT Head
              {
                OFFSET 6.432774 0.0 0.0
                CHANNELS 3 Zrotation Yrotation Xrotation
                JOINT HeadEnd
                {
                  OFFSET 16.169773 0.06451 0.00362
                  CHANNELS 3 Zrotation Yrotation Xrotation
                }
                JOINT Jaw
                {
                  OFFSET 0.108741 3.12938 0.002639
                  CHANNELS 3 Zrotation Yrotation Xrotation
                }
                JOINT LeftEye
                {
                  OFFSET 4.45173 8.166359 3.206392
                  CHANNELS 3 Zrotation Yrotation Xrotation
                }
                JOINT RightEye
                {
                  OFFSET 4.436895 8.135758 -3.222429
                  CHANNELS 3 Zrotation Yrotation Xrotation
                }
              }
            }
          }
          JOINT LeftShoulder
          {
            OFFSET 23.218927 5.195579 1.621656
            CHANNELS 3 Zrotation Yrotation Xrotation
            JOINT LeftArm
            {
              OFFSET 15.902118 2e-06 -2e-06
              CHANNELS 3 Zrotation Yrotation Xrotation
              JOINT LeftForeArm
              {
                OFFSET 28.739307 0.0 -1e-06
                CHANNELS 3 Zrotation Yrotation Xrotation
                JOINT LeftHand
                {
                  OFFSET 27.093981 -4e-06 0.0
                  CHANNELS 3 Zrotation Yrotation Xrotation
                  JOINT LeftHandThumb1
                  {
                    OFFSET 2.276781 3.380274 0.83384
                    CHANNELS 3 Zrotation Yrotation Xrotation
                    JOINT LeftHandThumb2
                    {
                      OFFSET 4.705309 -1e-06 -1e-06
                      CHANNELS 3 Zrotation Yrotation Xrotation
                      JOINT LeftHandThumb3
                      {
                        OFFSET 2.798515 0.0 3e-06
                        CHANNELS 3 Zrotation Yrotation Xrotation
                        JOINT LeftHandThumbEnd
                        {
                          OFFSET 3.180793 4e-06 -4e-06
                          CHANNELS 3 Zrotation Yrotation Xrotation
                        }
                      }
                    }
                  }
                  JOINT LeftHandIndex1
                  {
                    OFFSET 3.247786 2.352677 0.137192
                    CHANNELS 3 Zrotation Yrotation Xrotation
                    JOINT LeftHandIndex2
                    {
                      OFFSET 6.367095 1e-06 0.0
                      CHANNELS 3 Zrotation Yrotation Xrotation
                      JOINT LeftHandIndex3
                      {
                        OFFSET 3.662364 0.0 0.0
                        CHANNELS 3 Zrotation Yrotation Xrotation
                        JOINT LeftHandIndex4
                        {
                          OFFSET 2.329242 4e-06 -4e-06
                          CHANNELS 3 Zrotation Yrotation Xrotation
                          JOINT LeftHandIndexEnd
                          {
                            OFFSET 2.767823 1e-06 0.0
                            CHANNELS 3 Zrotation Yrotation Xrotation
                          }
                        }
                      }
                    }
                  }
                  JOINT LeftHandMiddle1
                  {
                    OFFSET 3.163612 0.945023 -0.406112
                    CHANNELS 3 Zrotation Yrotation Xrotation
                    JOINT LeftHandMiddle2
                    {
                      OFFSET 6.276789 3e-06 0.0
                      CHANNELS 3 Zrotation Yrotation Xrotation
                      JOINT LeftHandMiddle3
                      {
                        OFFSET 4.35652 -1e-06 4e-06
                        CHANNELS 3 Zrotation Yrotation Xrotation
                        JOINT LeftHandMiddle4
                        {
                          OFFSET 2.996877 0.0 8e-06
                          CHANNELS 3 Zrotation Yrotation Xrotation
                          JOINT LeftHandMiddleEnd
                          {
                            OFFSET 2.323256 3e-06 -4e-06
                            CHANNELS 3 Zrotation Yrotation Xrotation
                          }
                        }
                      }
                    }
                  }
                  JOINT LeftHandRing1
                  {
                    OFFSET 2.882606 -0.309162 0.107445
                    CHANNELS 3 Zrotation Yrotation Xrotation
                    JOINT LeftHandRing2
                    {
                      OFFSET 6.033198 0.0 4e-06
                      CHANNELS 3 Zrotation Yrotation Xrotation
                      JOINT LeftHandRing3
                      {
                        OFFSET 4.350578 3e-06 0.0
                        CHANNELS 3 Zrotation Yrotation Xrotation
                        JOINT LeftHandRing4
                        {
                          OFFSET 2.651321 2e-06 -7e-06
                          CHANNELS 3 Zrotation Yrotation Xrotation
                          JOINT LeftHandRingEnd
                          {
                            OFFSET 1.937663 1e-06 -4e-06
                            CHANNELS 3 Zrotation Yrotation Xrotation
                          }
                        }
                      }
                    }
                  }
                  JOINT LeftHandPinky1
                  {
                    OFFSET 2.865315 -1.525436 0.575687
                    CHANNELS 3 Zrotation Yrotation Xrotation
                    JOINT LeftHandPinky2
                    {
                      OFFSET 5.54936 1e-06 -8e-06
                      CHANNELS 3 Zrotation Yrotation Xrotation
                      JOINT LeftHandPinky3
                      {
                        OFFSET 3.070974 0.0 -4e-06
                        CHANNELS 3 Zrotation Yrotation Xrotation
                        JOINT LeftHandPinky4
                        {
                          OFFSET 1.549672 1e-06 0.0
                          CHANNELS 3 Zrotation Yrotation Xrotation
                          JOINT LeftHandPinkyEnd
                          {
                            OFFSET 1.952123 0.0 0.0
                            CHANNELS 3 Zrotation Yrotation Xrotation
                          }
                        }
                      }
                    }
                  }
                }
              }
            }
          }
          JOINT RightShoulder
          {
            OFFSET 23.161716 5.296122 -1.380114
            CHANNELS 3 Zrotation Yrotation Xrotation
            JOINT RightArm
            {
              OFFSET -16.027195 -2e-06 1.1e-05
              CHANNELS 3 Zrotation Yrotation Xrotation
              JOINT RightForeArm
              {
                OFFSET -28.736639 4e-06 2e-06
                CHANNELS 3 Zrotation Yrotation Xrotation
                JOINT RightHand
                {
                  OFFSET -27.133619 6e-06 0.0
                  CHANNELS 3 Zrotation Yrotation Xrotation
                  JOINT RightHandThumb1
                  {
                    OFFSET -2.274328 -3.351035 -0.83067
                    CHANNELS 3 Zrotation Yrotation Xrotation
                    JOINT RightHandThumb2
                    {
                      OFFSET -4.703594 -3e-06 2e-06
                      CHANNELS 3 Zrotation Yrotation Xrotation
                      JOINT RightHandThumb3
                      {
                        OFFSET -2.794935 -4e-06 -3e-06
                        CHANNELS 3 Zrotation Yrotation Xrotation
                        JOINT RightHandThumbEnd
                        {
                          OFFSET -3.183852 4e-06 1e-06
                          CHANNELS 3 Zrotation Yrotation Xrotation
                        }
                      }
                    }
                  }
                  JOINT RightHandIndex1
                  {
                    OFFSET -3.253496 -2.33755 -0.127667
                    CHANNELS 3 Zrotation Yrotation Xrotation
                    JOINT RightHandIndex2
                    {
                      OFFSET -6.344434 0.0 0.0
                      CHANNELS 3 Zrotation Yrotation Xrotation
                      JOINT RightHandIndex3
                      {
                        OFFSET -3.654871 0.0 -8e-06
                        CHANNELS 3 Zrotation Yrotation Xrotation
                        JOINT RightHandIndex4
                        {
                          OFFSET -2.327586 -1e-06 0.0
                          CHANNELS 3 Zrotation Yrotation Xrotation
                          JOINT RightHandIndexEnd
                          {
                            OFFSET -2.770001 3e-06 8e-06
                            CHANNELS 3 Zrotation Yrotation Xrotation
                          }
                        }
                      }
                    }
                  }
                  JOINT RightHandMiddle1
                  {
                    OFFSET -3.168223 -0.944764 0.411762
                    CHANNELS 3 Zrotation Yrotation Xrotation
                    JOINT RightHandMiddle2
                    {
                      OFFSET -6.266691 -1e-06 -4e-06
                      CHANNELS 3 Zrotation Yrotation Xrotation
                      JOINT RightHandMiddle3
                      {
                        OFFSET -4.348901 0.0 0.0
                        CHANNELS 3 Zrotation Yrotation Xrotation
                        JOINT RightHandMiddle4
                        {
                          OFFSET -3.00024 2e-06 -4e-06
                          CHANNELS 3 Zrotation Yrotation Xrotation
                          JOINT RightHandMiddleEnd
                          {
                            OFFSET -2.321477 -4e-06 -4e-06
                            CHANNELS 3 Zrotation Yrotation Xrotation
                          }
                        }
                      }
                    }
                  }
                  JOINT RightHandRing1
                  {
                    OFFSET -2.885654 0.293261 -0.119232
                    CHANNELS 3 Zrotation Yrotation Xrotation
                    JOINT RightHandRing2
                    {
                      OFFSET -6.032835 -1e-06 -4e-06
                      CHANNELS 3 Zrotation Yrotation Xrotation
                      JOINT RightHandRing3
                      {
                        OFFSET -4.33881 0.0 -4e-06
                        CHANNELS 3 Zrotation Yrotation Xrotation
                        JOINT RightHandRing4
                        {
                          OFFSET -2.654903 -4e-06 -4e-06
                          CHANNELS 3 Zrotation Yrotation Xrotation
                          JOINT RightHandRingEnd
                          {
                            OFFSET -1.935122 0.0 4e-06
                            CHANNELS 3 Zrotation Yrotation Xrotation
                          }
                        }
                      }
                    }
                  }
                  JOINT RightHandPinky1
                  {
                    OFFSET -2.866241 1.503904 -0.60527
                    CHANNELS 3 Zrotation Yrotation Xrotation
                    JOINT RightHandPinky2
                    {
                      OFFSET -5.553177 -2e-06 0.0
                      CHANNELS 3 Zrotation Yrotation Xrotation
                      JOINT RightHandPinky3
                      {
                        OFFSET -3.062664 -1e-06 -4e-06
                        CHANNELS 3 Zrotation Yrotation Xrotation
                        JOINT RightHandPinky4
                        {
                          OFFSET -1.546529 2e-06 4e-06
                          CHANNELS 3 Zrotation Yrotation Xrotation
                          JOINT RightHandPinkyEnd
                          {
                            OFFSET -1.952341 0.0 -4e-06
                            CHANNELS 3 Zrotation Yrotation Xrotation
                          }
                        }
                      }
                    }
                  }
                }
              }
            }
          }
        }
      }
    }
    JOINT LeftLeg
    {
      OFFSET -8.443107 2.567604 10.043214
      CHANNELS 3 Zrotation Yrotation Xrotation
      JOINT LeftShin
      {
        OFFSET 43.229198 1e-06 -1e-06
        CHANNELS 3 Zrotation Yrotation Xrotation
        JOINT LeftFoot
        {
          OFFSET 42.298611 1e-06 1e-06
          CHANNELS 3 Zrotation Yrotation Xrotation
          JOINT LeftToeBase
          {
            OFFSET 14.165858 1e-06 0.0
            CHANNELS 3 Zrotation Yrotation Xrotation
            JOINT LeftToeEnd
            {
              OFFSET 6.7141 -0.234461 0.0
              CHANNELS 3 Zrotation Yrotation Xrotation
            }
          }
        }
      }
    }
    JOINT RightLeg
    {
      OFFSET -8.303923 2.592729 -10.047278
      CHANNELS 3 Zrotation Yrotation Xrotation
      JOINT RightShin
      {
        OFFSET -43.369682 0.0 1e-06
        CHANNELS 3 Zrotation Yrotation Xrotation
        JOINT RightFoot
        {
          OFFSET -42.260784 4e-06 2e-06
          CHANNELS 3 Zrotation Yrotation Xrotation
          JOINT RightToeBase
          {
            OFFSET -14.222245 -2e-06 -1e-06
            CHANNELS 3 Zrotation Yrotation Xrotation
            JOINT RightToeEnd
            {
              OFFSET -6.660062 0.232574 -2e-06
              CHANNELS 3 Zrotation Yrotation Xrotation
            }
          }
        }
      }
    }
  }
}
MOTION
Frames: 4
Frame Time: 0.03333333333333333
0.0 0.0 0.0 0.0 -0.0 0.0 -2.610678 97.330711 1.570936 90.287064 2.348988 89.771149 7.631782 0.07433 -0.179995 -8.976875 -0.408063 -0.620316 23.563879 -0.341884 -2.596044 36.205242 -2.569503 2.383137 -2.627118 -0.35651 -2.504663 -45.422977 -1.413884 -2.408306 6e-06 0.0 -0.0 0.065648 0.013465 -0.092128 0.148079 -0.017714 -0.038744 0.122289 0.040586 -0.142084 -108.045837 -76.861992 129.604919 26.974867 -23.845783 17.107347 48.345596 -0.734227 0.371181 5.878923 -3.877647 -7.261022 17.636621 -26.322723 52.411182 -19.466663 -14.395598 29.410393 -0.0 -8.774821 -2e-06 16.191818 -18.247971 6.171939 -0.609776 -1.795653 -3.889329 -4.807088 -11.046807 -2.93785 5e-06 -20.976011 -3e-06 -5.019968 -25.033556 -4.031882 6e-06 -1e-06 0.0 -10.634533 -5.68697 -3.565588 10.573275 -17.922951 -3.113901 4e-06 -13.821208 -0.0 -0.501777 -31.181505 -4.027015 -11.501499 -60.026005 7.527752 -13.982712 -7.150196 -2.875041 13.77273 -8.401491 -3.21824 0.347736 -34.211544 0.771651 -0.963029 -17.733366 2.62102 -0.0 -1e-06 2e-06 -17.346418 -20.095215 -4.201779 21.757559 -1.638375 3.866427 1e-06 -6.338823 1e-06 -1.69759 -22.591743 -6.194006 -1e-06 -6e-06 -1e-06 69.528908 -79.932877 133.422424 21.513327 -30.578344 10.885852 51.40778 -1.068963 0.22187 1.944595 0.059519 -17.633966 22.182114 -20.375895 49.933319 -16.701817 -16.743528 28.476532 -4e-06 -12.690601 -1e-06 16.182463 -17.566578 2.597519 -0.105919 -1.513857 -4.275883 -5.03904 -5.61287 -2.953557 5e-06 -11.020523 -3e-06 -6.111296 -15.895332 -3.840472 0.0 0.0 0.0 -10.28337 -5.680288 -4.341838 11.028296 -11.302406 -2.372633 -1.384266 -14.238581 -6.320121 -0.625435 -26.924187 -3.8276 -4.169256 -48.992924 -3.973093 -13.708526 -7.363476 -3.72094 18.141153 -14.052739 -3.242676 7e-06 -18.78727 -1e-06 -0.429711 -8.456044 2.555503 -1e-06 1e-06 -1e-06 -15.923534 -20.094482 -5.473587 30.41921 -7.190827 1.735925 3e-06 -8.162927 0.0 -1.861902 -22.861469 -6.167942 -0.0 -1e-06 -0.0 169.948746 -9.034476 -9.115688 30.524351 -0.030032 0.42563 -85.973167 7.386477 -6.582294 -5.81797 1.324758 2.052739 -0.999999 0.0 0.0 -10.705629 -13.84322 -16.10273 30.458139 0.112865 0.17365 -82.406601 10.302634 -10.764324 -5.504341 0.769307 1.695532 -1.000003 0.0 0.0 
0.0 0.0 0.0 0.0 -0.0 0.0 -2.29447 97.314545 1.711488 89.993584 2.386636 89.497993 7.642019 0.136387 -0.196729 -9.004363 -0.375022 -0.556189 23.542318 -0.307912 -2.584543 36.271957 -2.523666 2.369374 -2.609686 -0.437789 -2.486437 -45.172356 -1.424134 -2.450598 5e-06 0.0 -0.0 0.055241 0.005897 -0.076648 0.118819 -0.024154 -0.027001 0.089746 0.0319 -0.123847 -107.97348 -76.812004 129.671967 26.819008 -23.924213 17.028931 48.382854 -0.722464 0.421792 6.013412 -4.057309 -7.247051 17.636625 -26.322733 52.411194 -19.46666 -14.395594 29.410389 -0.0 -8.774819 -2e-06 16.175854 -18.196323 6.126195 -0.609777 -1.795654 -3.889327 -4.807087 -11.046809 -2.93785 5e-06 -20.976013 -3e-06 -5.019967 -25.033554 -4.031882 7e-06 1e-06 2e-06 -10.634532 -5.686971 -3.565589 10.573271 -17.922951 -3.113899 4e-06 -13.821206 -1e-06 -0.501777 -31.181505 -4.027015 -11.292828 -60.019428 7.389938 -13.982711 -7.150197 -2.875042 13.772726 -8.401491 -3.218241 0.347734 -34.211555 0.771652 -0.963029 -17.733366 2.621021 -0.0 0.0 2e-06 -17.346413 -20.095215 -4.201782 21.757555 -1.638374 3.866426 2e-06 -6.338823 -1e-06 -1.697588 -22.59174 -6.194004 -1e-06 -6e-06 -1e-06 69.994362 -79.908722 133.016739 21.539394 -30.816742 11.01385 51.329681 -0.928751 0.293343 2.060006 0.001797 -17.518723 22.18211 -20.375891 49.933319 -16.701813 -16.743528 28.476534 -3e-06 -12.690601 -1e-06 16.144873 -17.518642 2.628685 -0.10592 -1.513855 -4.275882 -5.03904 -5.612871 -2.953557 5e-06 -11.020523 -2e-06 -6.111296 -15.89533 -3.840471 -0.0 1e-06 -1e-06 -10.283369 -5.680288 -4.341841 11.028294 -11.302404 -2.372633 -1.384268 -14.23858 -6.320122 -0.625438 -26.924187 -3.827599 -4.239902 -49.098991 -3.834678 -13.708523 -7.363476 -3.720942 18.141146 -14.052739 -3.242674 5e-06 -18.78727 -1e-06 -0.429712 -8.456041 2.555503 -0.0 -0.0 1e-06 -15.923534 -20.094482 -5.473584 30.41921 -7.190824 1.735925 4e-06 -8.162925 -1e-06 -1.861901 -22.861467 -6.167945 -0.0 -1e-06 -0.0 169.979324 -9.218225 -9.303851 30.896818 -0.026411 0.458637 -86.364609 7.318649 -6.447344 -5.79678 1.329551 2.053806 -0.999999 0.0 0.0 -10.489034 -13.662563 -15.988469 30.105671 0.116358 0.164218 -82.204582 10.515135 -10.850727 -5.537962 0.765058 1.700647 -1.000002 0.0 -0.0 
0.0 0.0 0.0 0.0 -0.0 0.0 -1.902457 97.271332 1.91108 89.701653 2.409207 89.275406 7.622887 0.17731 -0.203645 -9.038178 -0.353306 -0.543543 23.574848 -0.237914 -2.539462 36.357903 -2.500801 2.347349 -2.62721 -0.455243 -2.508808 -44.922356 -1.454507 -2.445756 4e-06 -0.0 -0.0 0.0515 0.00478 -0.070536 0.092734 -0.028488 -0.019661 0.06657 0.033658 -0.120068 -107.959145 -76.768387 129.759964 26.613888 -24.011753 17.182386 48.692131 -0.667418 0.47014 6.132302 -4.169809 -7.647023 17.636627 -26.322729 52.41119 -19.466658 -14.395598 29.410389 -0.0 -8.774821 -2e-06 16.207415 -18.209093 6.100164 -0.609776 -1.795653 -3.889328 -4.807089 -11.046809 -2.937848 5e-06 -20.976015 -2e-06 -5.01997 -25.033554 -4.031879 6e-06 -1e-06 -1e-06 -10.634533 -5.686971 -3.565586 10.573272 -17.922947 -3.113903 3e-06 -13.821206 -0.0 -0.501779 -31.181501 -4.027014 -11.228753 -59.995419 7.322303 -13.982714 -7.150198 -2.875045 13.772728 -8.401491 -3.218239 0.347734 -34.211552 0.771652 -0.963027 -17.73337 2.621017 -0.0 -1e-06 0.0 -17.346416 -20.095215 -4.20178 21.757555 -1.638375 3.866427 1e-06 -6.338821 -0.0 -1.697588 -22.591742 -6.194007 1e-06 -4e-06 -3e-06 70.08873 -79.845512 132.954102 21.437023 -30.95047 11.280246 51.361801 -0.840368 0.303203 2.135189 -0.028989 -17.49028 22.182116 -20.375895 49.933327 -16.701815 -16.743526 28.476536 -3e-06 -12.6906 -2e-06 16.100677 -17.451893 2.66668 -0.105919 -1.513857 -4.275881 -5.03904 -5.61287 -2.953556 5e-06 -11.020525 -3e-06 -6.111296 -15.895334 -3.840473 -0.0 1e-06 -0.0 -10.283369 -5.680288 -4.341838 11.028295 -11.302406 -2.372635 -1.384267 -14.238581 -6.320123 -0.625434 -26.924194 -3.827604 -4.262926 -49.133049 -3.740898 -13.708526 -7.363474 -3.72094 18.14115 -14.052739 -3.242676 7e-06 -18.787266 -2e-06 -0.429711 -8.456043 2.555504 -1e-06 1e-06 0.0 -15.923532 -20.094482 -5.473588 30.41921 -7.190827 1.735925 3e-06 -8.162927 -0.0 -1.8619 -22.861471 -6.167943 -0.0 -3e-06 -0.0 169.967499 -9.357097 -9.500841 31.38644 -0.036347 0.478546 -86.87822 7.195033 -6.213051 -5.752859 1.323192 2.056851 -0.999999 -0.0 0.0 -10.158055 -13.576581 -15.89576 29.71546 0.119529 0.157529 -82.103462 10.738145 -11.143995 -5.509431 0.768044 1.705781 -1.000001 0.0 0.0 
0.0 0.0 0.0 0.0 -0.0 0.0 -1.479393 97.235847 2.067709 89.382889 2.427285 89.096626 7.599815 0.225922 -0.20023 -9.076918 -0.325628 -0.548582 23.606602 -0.136813 -2.475017 36.453217 -2.491469 2.316487 -2.647509 -0.461543 -2.495248 -44.768307 -1.467257 -2.42614 6e-06 -0.0 -0.0 0.05022 0.004809 -0.068122 0.072372 -0.032919 -0.015623 0.051419 0.037731 -0.12015 -107.77858 -76.691055 129.650482 26.500332 -24.194368 17.454863 49.127865 -0.614094 0.497816 6.212316 -4.141161 -8.038613 17.636625 -26.322735 52.411194 -19.466663 -14.395598 29.410389 -1e-06 -8.774822 -3e-06 16.225351 -18.238552 6.083347 -0.609775 -1.795653 -3.889328 -4.807088 -11.04681 -2.937847 5e-06 -20.976015 -1e-06 -5.019969 -25.033556 -4.031881 7e-06 -0.0 0.0 -10.634532 -5.686968 -3.565585 10.573275 -17.922949 -3.113903 4e-06 -13.821205 0.0 -0.501777 -31.181498 -4.027012 -11.202415 -59.965004 7.283296 -13.982712 -7.150196 -2.87504 13.772731 -8.401493 -3.218243 0.347739 -34.211552 0.771651 -0.963028 -17.733366 2.621023 1e-06 2e-06 0.0 -17.346416 -20.095215 -4.20178 21.757557 -1.638376 3.866426 2e-06 -6.338823 0.0 -1.69759 -22.591745 -6.194004 1e-06 -5e-06 -1e-06 70.149834 -79.757286 132.896652 21.285128 -31.021187 11.712395 51.454533 -0.79483 0.301483 2.193144 -0.154801 -17.504465 22.182119 -20.375895 49.933327 -16.701818 -16.743528 28.476536 -3e-06 -12.690602 -3e-06 16.083065 -17.404274 2.694905 -0.105918 -1.513856 -4.275882 -5.039041 -5.612873 -2.953558 4e-06 -11.020525 -2e-06 -6.111297 -15.895336 -3.840471 -1e-06 0.0 0.0 -10.283373 -5.680288 -4.341839 11.028298 -11.302408 -2.372634 -1.384268 -14.238585 -6.320123 -0.625435 -26.924194 -3.827603 -4.279519 -49.128529 -3.673607 -13.708526 -7.363477 -3.720941 18.141153 -14.052744 -3.242677 8e-06 -18.787275 -2e-06 -0.42971 -8.456047 2.555504 0.0 1e-06 0.0 -15.923536 -20.09449 -5.473591 30.419218 -7.190831 1.735925 4e-06 -8.162929 -1e-06 -1.861898 -22.861479 -6.167948 -1e-06 -3e-06 -0.0 169.921127 -9.494549 -9.670362 31.852062 -0.051582 0.487956 -87.360138 7.037646 -5.976223 -5.717464 1.311713 2.055235 -0.999998 -0.0 -0.0 -9.836504 -13.383432 -15.70177 29.181276 0.117418 0.144204 -81.961159 10.786459 -11.446592 -5.478594 0.766814 1.706614 -1.000002 -1e-06 0.0 
